<svg xmlns="http://www.w3.org/2000/svg" width="63.836" height="56.539" viewBox="0 0 63.836 56.539"><g transform="translate(-15 -11)"><path d="M93.407,38.935h-24.9a11.05,11.05,0,0,0-10.864,9.453L55.669,60.77c5.8.342,9.389-.121,11.641-.912a17.644,17.644,0,0,1,.262-3.675c1.117-6.462,6.464-10.037,8.567-11.442a22.822,22.822,0,0,1,9.071-3.2c3.588-.451,4.616.348,5.04.841a4.144,4.144,0,0,1,.672,3.029,8.109,8.109,0,0,1-2.016,4.543c-3.56,4.377-11.816,7.495-12.935,7.909-.027.343-.2,3.069,1.68,4.544,2.056,1.614,4.962.464,5.711.168,2.5-.99,4.61-3.243,6.143-5.386.517-.724,1.6-1.149,1.92,0a2.025,2.025,0,0,1-.336,1.514A19.081,19.081,0,0,1,77.82,67.793c-2.428.247-5.392.55-7.728-1.346A7.5,7.5,0,0,1,67.6,62.164,33.779,33.779,0,0,1,54.954,65.24l-1.2,7.535a7.041,7.041,0,0,0,1.579,5.684,6.69,6.69,0,0,0,5.095,2.374H85.406A11.05,11.05,0,0,0,96.27,71.381l3.884-24.3a7.113,7.113,0,0,0-1.6-5.746A6.759,6.759,0,0,0,93.407,38.935ZM61.236,77.647a4.99,4.99,0,0,1-1.315.012c-.252-.025-.435-.143-.41-.456a.824.824,0,0,0-.292.194,1.953,1.953,0,0,1-1.9.259,1.033,1.033,0,0,1-.645-.717,3.03,3.03,0,0,1,.917-3.079,2.092,2.092,0,0,1,1.986-.293,1.252,1.252,0,0,1,.492.387c.138-.367.183-.4.544-.4.2,0,.395-.005.591,0,.25.008.344.116.3.367-.082.439-.181.875-.274,1.313s-.185.877-.274,1.314c-.049.239.013.32.254.348.193.024.388.046.407.3A.387.387,0,0,1,61.236,77.647Zm8.411.034a5.1,5.1,0,0,1-1.475-.02.493.493,0,0,1-.448-.582,10.461,10.461,0,0,1,.3-1.656,5.9,5.9,0,0,0,.139-.784c.01-.236-.081-.333-.317-.347a.848.848,0,0,0-.823.634,11.943,11.943,0,0,0-.344,1.647c-.027.187.03.3.244.328.173.02.319.094.314.318-.007.273-.108.441-.339.464a4.551,4.551,0,0,1-1.361-.027.5.5,0,0,1-.438-.552,5.786,5.786,0,0,1,.2-1.233c.082-.409.181-.816.269-1.223.055-.256-.029-.355-.289-.36a.846.846,0,0,0-.857.707c-.109.426-.188.86-.279,1.291-.022.1-.045.209-.057.313-.017.163.032.273.222.3.26.039.359.16.338.37-.029.3-.138.421-.4.423-.729.007-1.456,0-2.186,0-.2,0-.37-.032-.381-.284a.467.467,0,0,1,.349-.495.142.142,0,0,1,.045-.007c.573.041.556-.225.65-.626.121-.525.22-1.055.326-1.584.049-.244-.007-.32-.249-.355-.3-.042-.408-.135-.4-.333a.413.413,0,0,1,.454-.456c.494-.005.986,0,1.48,0,.277,0,.354.1.334.362a1.8,1.8,0,0,1,1.823-.357.912.912,0,0,1,.578.6,1.671,1.671,0,0,1,1.742-.66.883.883,0,0,1,.862,1.1,16.677,16.677,0,0,1-.319,1.676c-.012.067-.03.133-.042.2-.057.33-.02.379.316.419.18.022.328.083.339.3A.42.42,0,0,1,69.647,77.681Zm4.223-1.7H73.1v0c-.386,0-.774.007-1.161,0-.171-.005-.225.072-.239.224a.792.792,0,0,0,.371.818.977.977,0,0,0,1.06-.252,1,1,0,0,1,1.1-.323c.2.06.254.192.155.387a1.541,1.541,0,0,1-.865.737,3.384,3.384,0,0,1-2.231.106,1.385,1.385,0,0,1-1.006-1.307,2.492,2.492,0,0,1,1.159-2.524,2.793,2.793,0,0,1,2.283-.268A1.48,1.48,0,0,1,74.741,74.9c0,.06,0,.121,0,.182C74.749,75.877,74.645,75.983,73.87,75.981Zm5.51-.75a2.052,2.052,0,0,1-.475,0,.315.315,0,0,1-.255-.288.822.822,0,0,0-1.44-.353,2.038,2.038,0,0,0-.578,1.774.8.8,0,0,0,1.314.493,1.044,1.044,0,0,0,.435-.621.413.413,0,0,1,.453-.35c.625-.005.726.136.47.712a2.068,2.068,0,0,1-1.655,1.168,5.247,5.247,0,0,1-.566.05,3.069,3.069,0,0,1-.679-.074,1.564,1.564,0,0,1-1.243-1.61,2.678,2.678,0,0,1,1.124-2.275,2.243,2.243,0,0,1,2.375-.123c.161.077.266.1.39-.05a.773.773,0,0,1,.684-.1.265.265,0,0,1,.141.308q-.111.545-.232,1.09A.3.3,0,0,1,79.38,75.231Zm4.685.488c-.756.988-1.423,2.043-2.212,3.007a2.019,2.019,0,0,1-1.824.724.3.3,0,0,1-.3-.331c0-.308.118-.481.329-.491.128-.007.257.005.386.01a.971.971,0,0,0,.68-.205.818.818,0,0,0,.343-.978c-.26-.855-.439-1.737-.65-2.607-.059-.239-.141-.448-.425-.5a.289.289,0,0,1-.254-.364c.039-.269.149-.414.363-.422.272-.01.546,0,.82,0,.432,0,.865,0,1.3,0,.195,0,.376.008.408.254a.482.482,0,0,1-.369.528c-.48.094-.48.1-.373.565.117.517.232,1.035.361,1.622.437-.663.837-1.262,1.223-1.868.1-.163.045-.254-.156-.3-.344-.087-.417-.209-.314-.532a.351.351,0,0,1,.376-.262c.486,0,.971,0,1.457,0,.163,0,.344-.008.393.189s.005.459-.185.518C84.7,74.5,84.47,75.192,84.065,75.719Zm6.605-3.971c-.158.781-.507,2.1-.674,2.884-.129.609-.276,1.213-.388,1.826-.059.325-.037.458.3.456.17,0,.334.062.343.286a.419.419,0,0,1-.3.475,4.8,4.8,0,0,1-1.52-.005c-.227-.035-.277-.252-.319-.471-.114.088-.215.165-.317.241a1.947,1.947,0,0,1-1.628.3,1.2,1.2,0,0,1-.939-1.129,3.008,3.008,0,0,1,.8-2.564,2.063,2.063,0,0,1,2-.532,1.268,1.268,0,0,1,.684.444,7.825,7.825,0,0,0,.2-.949,7.283,7.283,0,0,0,.155-.759H57.746a.673.673,0,0,1,0-1.346H90a.672.672,0,0,1,.672.673.641.641,0,0,1-.008.082C90.677,71.665,90.682,71.688,90.671,71.747Z" transform="translate(-29.81 -21.54)" fill="#f8fcff"/><path d="M73.756,193.384a.867.867,0,0,0-.469.343,2.55,2.55,0,0,0-.479,1.5c-.012.641.383.931.932.727a.954.954,0,0,0,.432-.325,2.413,2.413,0,0,0,.475-1.417c-.005-.059-.013-.157-.025-.254A.639.639,0,0,0,73.756,193.384Z" transform="translate(-44.576 -140.609)" fill="#f8fcff"/><path d="M199.028,193.427a.86.86,0,0,0-.588.358,2.54,2.54,0,0,0-.464,1.612.618.618,0,0,0,.909.607.928.928,0,0,0,.418-.3,2.4,2.4,0,0,0,.5-1.37,2.962,2.962,0,0,0-.028-.316A.633.633,0,0,0,199.028,193.427Z" transform="translate(-141.089 -140.66)" fill="#f8fcff"/><path d="M68.235,11H35.983A16,16,0,0,0,20.191,24.423L15.14,55.346A10.5,10.5,0,0,0,25.5,67.539H57.87A16,16,0,0,0,73.662,54.116L78.7,23.3A10.6,10.6,0,0,0,68.235,11ZM73,25.966l-3.884,24.3A13.726,13.726,0,0,1,55.6,61.986H30.613a9.364,9.364,0,0,1-7.138-3.32,9.731,9.731,0,0,1-2.189-7.857l3.9-24.387A13.727,13.727,0,0,1,38.7,14.7H63.6a9.448,9.448,0,0,1,7.195,3.345A9.806,9.806,0,0,1,73,25.966Z" fill="#f8fcff"/><path d="M134.879,193.45a.487.487,0,0,0-.625-.5,1.209,1.209,0,0,0-.843,1.015c.005.092.059.092.121.092.19,0,.378,0,.568,0v0c.069,0,.136,0,.2,0,.544.02.6-.034.575-.587Z" transform="translate(-91.305 -140.295)" fill="#f8fcff"/><path d="M157.227,68.016a6.62,6.62,0,0,0,0-2.861c-.144-.562-.578-2.25-1.848-2.692a2.848,2.848,0,0,0-2.184.337c-3.276,1.684-3.509,10.431-3.528,11.442C153.721,72.906,156.634,70.5,157.227,68.016Z" transform="translate(-103.842 -39.6)" fill="#f8fcff"/></g></svg>