<svg xmlns="http://www.w3.org/2000/svg" width="92.207" height="56.539" viewBox="0 0 92.207 56.539"><path d="M117.04,45.577a1.727,1.727,0,0,1,3.455,0,1.732,1.732,0,0,1-1.727,1.727A1.754,1.754,0,0,1,117.04,45.577Zm.348,5.386a1.38,1.38,0,0,1,2.759,0v15.36a1.38,1.38,0,1,1-2.759,0Z" transform="translate(-72.804 -27.276)" fill="#fff"/><g transform="translate(5.979 44.671)"><path d="M16.8,119.118v2.238a.764.764,0,0,0,.193.582.694.694,0,0,0,.918.015.823.823,0,0,0,.219-.684v-2.154h.979v2.173a1.535,1.535,0,0,1-.423,1.225,1.639,1.639,0,0,1-1.247.469,1.677,1.677,0,0,1-1.251-.454,1.771,1.771,0,0,1-.37-1.243V119.11H16.8Z" transform="translate(-15.82 -118.762)" fill="#fff"/><path d="M26.88,122.337h.907v.317a.954.954,0,0,1,.805-.374,1.036,1.036,0,0,1,.748.272.875.875,0,0,1,.238.711v1.61h-.907v-1.281a.708.708,0,0,0-.113-.491.375.375,0,0,0-.287-.11.483.483,0,0,0-.333.117.588.588,0,0,0-.147.4v1.361h-.907v-2.536Z" transform="translate(-22.7 -120.734)" fill="#fff"/><path d="M36.48,118.29a.51.51,0,1,1-.51.51A.508.508,0,0,1,36.48,118.29Zm.454,1.565v2.536h-.907v-2.536Z" transform="translate(-28.354 -118.252)" fill="#fff"/><path d="M41.314,121.8v1.792h-.907V121.8H40.12v-.741h.287v-.832h.907v.832h.518v.741Z" transform="translate(-30.936 -119.459)" fill="#fff"/><path d="M48.517,123.738h-1.89a.642.642,0,0,0,.159.423.51.51,0,0,0,.374.125.685.685,0,0,0,.295-.068.435.435,0,0,0,.159-.17h.866a1.165,1.165,0,0,1-.306.522,1.384,1.384,0,0,1-1.032.352,1.425,1.425,0,0,1-1.047-.386,1.317,1.317,0,0,1-.374-.96,1.358,1.358,0,0,1,.378-.979,1.422,1.422,0,0,1,1.039-.367,1.388,1.388,0,0,1,.975.348,1.424,1.424,0,0,1,.4,1.066v.094Zm-.835-.522a.618.618,0,0,0-.147-.272.523.523,0,0,0-.374-.136.474.474,0,0,0-.5.408h1.024Z" transform="translate(-34.419 -120.703)" fill="#fff"/><path d="M57.661,122.325h-.907v-.28a.926.926,0,0,1-.763.363,1.211,1.211,0,0,1-.892-.352,1.4,1.4,0,0,1-.408-1.009,1.367,1.367,0,0,1,.416-1,1.293,1.293,0,0,1,.9-.34,1.014,1.014,0,0,1,.756.329V118.19h.907v4.131Zm-1.07-.839a.622.622,0,0,0,.193-.431.654.654,0,0,0-.17-.408.543.543,0,0,0-.412-.17.559.559,0,0,0-.4.163.621.621,0,0,0-.174.431.585.585,0,0,0,.174.4.564.564,0,0,0,.4.17.62.62,0,0,0,.393-.155Z" transform="translate(-39.999 -118.19)" fill="#fff"/><path d="M68.85,122.91v-3.78h.979l1.81,2.313V119.13h.979v3.78h-.979l-1.81-2.313v2.313Z" transform="translate(-48.807 -118.775)" fill="#fff"/><path d="M82.964,122.293h.907v2.536h-.907v-.28a.936.936,0,0,1-.786.363,1.227,1.227,0,0,1-.915-.4,1.289,1.289,0,0,1-.363-.93,1.4,1.4,0,0,1,.393-1.013,1.31,1.31,0,0,1,.915-.359,1,1,0,0,1,.76.329v-.246Zm-.952.85a.6.6,0,0,0-.181.416.591.591,0,0,0,.174.412.637.637,0,0,0,.408.17.577.577,0,0,0,.408-.178.55.55,0,0,0,.17-.408.566.566,0,0,0-.174-.416.584.584,0,0,0-.408-.163.573.573,0,0,0-.4.163Z" transform="translate(-56.302 -120.691)" fill="#fff"/><path d="M91.564,121.8v1.792h-.907V121.8H90.37v-.741h.287v-.832h.907v.832h.518v.741Z" transform="translate(-62.193 -119.459)" fill="#fff"/><path d="M96.62,118.29a.51.51,0,1,1-.51.51A.508.508,0,0,1,96.62,118.29Zm.454,1.565v2.536h-.907v-2.536Z" transform="translate(-65.764 -118.252)" fill="#fff"/><path d="M103.137,124.493a1.737,1.737,0,0,1-2.264,0,1.261,1.261,0,0,1-.393-.934,1.246,1.246,0,0,1,.393-.93,1.58,1.58,0,0,1,1.13-.42,1.615,1.615,0,0,1,1.134.42,1.3,1.3,0,0,1,0,1.863Zm-1.535-1.349a.59.59,0,0,0-.174.416.608.608,0,0,0,.174.4.572.572,0,0,0,.408.17.595.595,0,0,0,.578-.571.622.622,0,0,0-.178-.416.631.631,0,0,0-.4-.163A.651.651,0,0,0,101.6,123.144Z" transform="translate(-68.482 -120.691)" fill="#fff"/><path d="M110.39,122.337h.907v.317a.954.954,0,0,1,.805-.374,1.036,1.036,0,0,1,.748.272.875.875,0,0,1,.238.711v1.61h-.907v-1.281a.708.708,0,0,0-.113-.491.375.375,0,0,0-.287-.11.483.483,0,0,0-.333.117.588.588,0,0,0-.147.4v1.361h-.907v-2.536Z" transform="translate(-74.646 -120.734)" fill="#fff"/><path d="M119.537,123.993a1.385,1.385,0,0,0,.363.189,1.239,1.239,0,0,0,.352.064.378.378,0,0,0,.234-.068.134.134,0,0,0,.045-.117.128.128,0,0,0-.045-.113.542.542,0,0,0-.238-.091l-.238-.057a.824.824,0,0,1-.442-.219.615.615,0,0,1-.163-.435.9.9,0,0,1,.238-.62,1.288,1.288,0,0,1,.907-.306,2.165,2.165,0,0,1,.813.163l-.306.578a1.265,1.265,0,0,0-.476-.125.368.368,0,0,0-.208.049.135.135,0,0,0-.079.125.148.148,0,0,0,.106.144c.087.034.159.034.3.076l.166.045a1.136,1.136,0,0,1,.374.2.719.719,0,0,1,.193.5.855.855,0,0,1-.253.631,1.319,1.319,0,0,1-.937.317,1.857,1.857,0,0,1-1.02-.295l.321-.631Z" transform="translate(-80.139 -120.697)" fill="#fff"/><path d="M16.657,136.13v3.78H15.92v-3.78Z" transform="translate(-15.882 -129.349)" fill="#fff"/><path d="M20.25,139.509h.692v.317a.9.9,0,0,1,.76-.4.95.95,0,0,1,.726.3,1.037,1.037,0,0,1,.193.692v1.542h-.692v-1.338a.694.694,0,0,0-.129-.48.444.444,0,0,0-.325-.125.472.472,0,0,0-.423.215.851.851,0,0,0-.11.476v1.251H20.25v-2.457Z" transform="translate(-18.576 -131.402)" fill="#fff"/><path d="M29.711,140.085a.582.582,0,0,0-.4-.163c-.163,0-.268.079-.268.2,0,.064.03.159.219.219l.166.049a1.28,1.28,0,0,1,.624.352.7.7,0,0,1,.125.408.825.825,0,0,1-.272.624,1.037,1.037,0,0,1-.737.261,1.231,1.231,0,0,1-.952-.408l.363-.42a.761.761,0,0,0,.544.283c.193,0,.34-.1.34-.268a.272.272,0,0,0-.215-.249l-.159-.057a1.379,1.379,0,0,1-.525-.295.664.664,0,0,1-.189-.472.731.731,0,0,1,.253-.556,1.025,1.025,0,0,1,.643-.174,1.228,1.228,0,0,1,.782.261l-.34.4Z" transform="translate(-23.527 -131.396)" fill="#fff"/><path d="M35.314,138.849v1.863h-.692v-1.863H34.35v-.59h.272v-.839h.692v.839h.476v.59Z" transform="translate(-27.346 -130.152)" fill="#fff"/><path d="M39.732,135.8a.414.414,0,1,1-.412.416A.416.416,0,0,1,39.732,135.8Zm.348,1.451v2.457h-.692v-2.457Z" transform="translate(-30.438 -129.144)" fill="#fff"/><path d="M43.684,138.849v1.863h-.692v-1.863H42.72v-.59h.272v-.839h.692v.839h.476v.59Z" transform="translate(-32.553 -130.152)" fill="#fff"/><path d="M48.568,139.64v1.387a.55.55,0,0,0,.147.431.558.558,0,0,0,.7,0,.55.55,0,0,0,.147-.431V139.64h.692v1.5a.936.936,0,0,1-.3.752,1.556,1.556,0,0,1-1.78,0,.924.924,0,0,1-.3-.752v-1.5h.692Z" transform="translate(-35.763 -131.533)" fill="#fff"/><path d="M56.524,138.849v1.863h-.692v-1.863H55.56v-.59h.272v-.839h.692v.839H57v.59Z" transform="translate(-40.54 -130.152)" fill="#fff"/><path d="M62.906,141.266a1.215,1.215,0,0,1-1.209.763,1.281,1.281,0,0,1-.941-.348,1.233,1.233,0,0,1-.386-.96,1.319,1.319,0,0,1,.374-.964,1.259,1.259,0,0,1,.922-.348,1.184,1.184,0,0,1,.96.4,1.468,1.468,0,0,1,.295.964v.057H61.084a.715.715,0,0,0,.121.412.581.581,0,0,0,.491.234.624.624,0,0,0,.571-.325l.635.1Zm-.635-.866a.587.587,0,0,0-1.16,0Z" transform="translate(-43.532 -131.39)" fill="#fff"/><path d="M73.072,137.362v1.863h-.692v-1.863H72.12v-.59h.261V136.1a1.064,1.064,0,0,1,.321-.866.921.921,0,0,1,.609-.2.955.955,0,0,1,.4.083v.631a.468.468,0,0,0-.314-.1.274.274,0,0,0-.249.125.8.8,0,0,0-.076.423v.582H73.7v.59h-.635Z" transform="translate(-50.841 -128.665)" fill="#fff"/><path d="M79.612,139.768a1.329,1.329,0,0,1,0,1.924,1.584,1.584,0,0,1-1.981,0,1.29,1.29,0,0,1-.412-.96,1.305,1.305,0,0,1,.412-.964,1.584,1.584,0,0,1,1.981,0Zm-.3.964a.692.692,0,1,0-.692.692A.683.683,0,0,0,79.314,140.732Z" transform="translate(-54.013 -131.396)" fill="#fff"/><path d="M86.43,139.509h.692v.37a.8.8,0,0,1,.306-.34.762.762,0,0,1,.408-.11.888.888,0,0,1,.295.057l-.091.646a.51.51,0,0,0-.325-.091.566.566,0,0,0-.457.2.852.852,0,0,0-.136.544v1.179H86.43Z" transform="translate(-59.742 -131.402)" fill="#fff"/><path d="M96.887,136.765v3.145H96.15v-3.145H95.3v-.635h2.438v.635Z" transform="translate(-65.26 -129.349)" fill="#fff"/><path d="M102.45,139.509h.692v.37a.8.8,0,0,1,.306-.34.762.762,0,0,1,.408-.11.888.888,0,0,1,.295.057l-.091.646a.51.51,0,0,0-.325-.091.566.566,0,0,0-.457.2.852.852,0,0,0-.136.544v1.179h-.692Z" transform="translate(-69.707 -131.402)" fill="#fff"/><path d="M109.747,139.516h.692v2.457h-.692v-.317a.877.877,0,0,1-.756.4,1.245,1.245,0,0,1-1.251-1.308,1.23,1.23,0,0,1,1.217-1.3.883.883,0,0,1,.786.4v-.317Zm-1.293,1.225a.68.68,0,1,0,.68-.692A.67.67,0,0,0,108.454,140.74Z" transform="translate(-72.998 -131.408)" fill="#fff"/><path d="M117.232,135.8a.414.414,0,1,1-.412.416A.416.416,0,0,1,117.232,135.8Zm.348,1.451v2.457h-.692v-2.457Z" transform="translate(-78.646 -129.144)" fill="#fff"/><path d="M120.95,139.509h.692v.317a.9.9,0,0,1,.76-.4.95.95,0,0,1,.726.3,1.037,1.037,0,0,1,.193.692v1.542h-.692v-1.338a.694.694,0,0,0-.129-.48.444.444,0,0,0-.325-.125.472.472,0,0,0-.423.215.851.851,0,0,0-.11.476v1.251h-.692v-2.457Z" transform="translate(-81.215 -131.402)" fill="#fff"/><path d="M129.572,135.8a.414.414,0,1,1-.412.416A.416.416,0,0,1,129.572,135.8Zm.348,1.451v2.457h-.692v-2.457Z" transform="translate(-86.322 -129.144)" fill="#fff"/><path d="M133.28,139.509h.692v.317a.9.9,0,0,1,.76-.4.95.95,0,0,1,.726.3,1.037,1.037,0,0,1,.193.692v1.542h-.692v-1.338a.694.694,0,0,0-.129-.48.444.444,0,0,0-.325-.125.472.472,0,0,0-.423.215.851.851,0,0,0-.11.476v1.251h-.692v-2.457Z" transform="translate(-88.885 -131.402)" fill="#fff"/><path d="M143.319,139.509h.692v2.343a1.4,1.4,0,0,1-.34,1.07,1.306,1.306,0,0,1-.971.348,1.345,1.345,0,0,1-.918-.283,1.366,1.366,0,0,1-.4-.733h.748a.6.6,0,0,0,.17.295.61.61,0,0,0,.42.129.6.6,0,0,0,.42-.151.7.7,0,0,0,.174-.544v-.348a.86.86,0,0,1-.752.408,1.168,1.168,0,0,1-.85-.333,1.349,1.349,0,0,1-.393-.975,1.384,1.384,0,0,1,.378-.975,1.214,1.214,0,0,1,.847-.329.869.869,0,0,1,.771.4v-.317Zm-1.058.7a.675.675,0,0,0-.219.522.69.69,0,0,0,.181.484.669.669,0,0,0,.5.215.664.664,0,0,0,.677-.7.691.691,0,0,0-.2-.491.626.626,0,0,0-.484-.2.66.66,0,0,0-.457.17Z" transform="translate(-93.886 -131.402)" fill="#fff"/><path d="M156.1,139.516h.692v2.457H156.1v-.317a.877.877,0,0,1-.756.4,1.245,1.245,0,0,1-1.251-1.308,1.23,1.23,0,0,1,1.217-1.3.883.883,0,0,1,.786.4v-.317ZM154.8,140.74a.68.68,0,1,0,.68-.692A.67.67,0,0,0,154.8,140.74Z" transform="translate(-101.829 -131.408)" fill="#fff"/><path d="M163.35,139.509h.692v.317a.9.9,0,0,1,.76-.4.95.95,0,0,1,.726.3,1.037,1.037,0,0,1,.193.692v1.542h-.692v-1.338a.694.694,0,0,0-.128-.48.444.444,0,0,0-.325-.125.472.472,0,0,0-.423.215.851.851,0,0,0-.11.476v1.251h-.692v-2.457Z" transform="translate(-107.59 -131.402)" fill="#fff"/><path d="M173.407,135.2h.692v4.131h-.692v-.318a.877.877,0,0,1-.756.4A1.245,1.245,0,0,1,171.4,138.1a1.23,1.23,0,0,1,1.217-1.3.883.883,0,0,1,.786.4v-2Zm-1.293,2.9a.68.68,0,1,0,.68-.692A.67.67,0,0,0,172.114,138.1Z" transform="translate(-112.597 -128.771)" fill="#fff"/><path d="M185.892,136.13a1.394,1.394,0,0,1,.964.283,1.083,1.083,0,0,1,.374.85,1.012,1.012,0,0,1-.854,1.055l1.179,1.591h-.918l-1.009-1.519h-.091v1.519H184.8v-3.78h1.1Zm-.359,1.742h.208c.144,0,.726-.015.726-.575s-.578-.567-.714-.567h-.219Z" transform="translate(-120.932 -129.349)" fill="#fff"/><path d="M195.716,141.266a1.215,1.215,0,0,1-1.209.763,1.281,1.281,0,0,1-.941-.348,1.233,1.233,0,0,1-.386-.96,1.319,1.319,0,0,1,.374-.964,1.259,1.259,0,0,1,.922-.348,1.184,1.184,0,0,1,.96.4,1.468,1.468,0,0,1,.295.964v.057h-1.837a.715.715,0,0,0,.121.412.581.581,0,0,0,.491.234.624.624,0,0,0,.571-.325l.635.1Zm-.635-.866a.587.587,0,0,0-1.16,0h1.16Z" transform="translate(-126.145 -131.39)" fill="#fff"/><path d="M202.79,140.085a.582.582,0,0,0-.4-.163c-.163,0-.268.079-.268.2,0,.064.03.159.219.219l.166.049a1.28,1.28,0,0,1,.624.352.7.7,0,0,1,.125.408.825.825,0,0,1-.272.624,1.037,1.037,0,0,1-.737.261,1.231,1.231,0,0,1-.952-.408l.363-.42a.761.761,0,0,0,.544.283c.193,0,.34-.1.34-.268a.272.272,0,0,0-.215-.249l-.159-.057a1.379,1.379,0,0,1-.525-.295.664.664,0,0,1-.189-.472.731.731,0,0,1,.253-.556,1.025,1.025,0,0,1,.643-.174,1.227,1.227,0,0,1,.782.261l-.34.4Z" transform="translate(-131.19 -131.396)" fill="#fff"/><path d="M210.356,141.266a1.215,1.215,0,0,1-1.209.763,1.281,1.281,0,0,1-.941-.348,1.233,1.233,0,0,1-.386-.96,1.318,1.318,0,0,1,.374-.964,1.259,1.259,0,0,1,.922-.348,1.184,1.184,0,0,1,.96.4,1.468,1.468,0,0,1,.295.964v.057h-1.837a.715.715,0,0,0,.121.412.581.581,0,0,0,.491.234.624.624,0,0,0,.571-.325l.635.1Zm-.635-.866a.587.587,0,0,0-1.16,0h1.16Z" transform="translate(-135.252 -131.39)" fill="#fff"/><path d="M218.187,139.516h.692v2.457h-.692v-.317a.877.877,0,0,1-.756.4,1.245,1.245,0,0,1-1.251-1.308,1.23,1.23,0,0,1,1.217-1.3.883.883,0,0,1,.786.4v-.317Zm-1.293,1.225a.68.68,0,1,0,.68-.692A.67.67,0,0,0,216.894,140.74Z" transform="translate(-140.452 -131.408)" fill="#fff"/><path d="M225.43,139.509h.692v.37a.8.8,0,0,1,.306-.34.762.762,0,0,1,.408-.11.888.888,0,0,1,.295.057l-.091.646a.511.511,0,0,0-.325-.091.566.566,0,0,0-.457.2.852.852,0,0,0-.136.544v1.179h-.692v-2.457Z" transform="translate(-146.206 -131.402)" fill="#fff"/><path d="M232.683,140.251a.8.8,0,0,0-.567-.215.66.66,0,0,0-.692.692.68.68,0,0,0,.714.7.807.807,0,0,0,.544-.215v.673a1.4,1.4,0,0,1-.635.155,1.369,1.369,0,0,1-.945-.359,1.248,1.248,0,0,1-.393-.941,1.263,1.263,0,0,1,1.308-1.315,1.481,1.481,0,0,1,.661.147v.68Z" transform="translate(-149.49 -131.396)" fill="#fff"/><path d="M237.69,135.2h.692v2a.9.9,0,0,1,.76-.4.95.95,0,0,1,.726.3,1.037,1.037,0,0,1,.193.692v1.542h-.692v-1.338a.694.694,0,0,0-.129-.48.444.444,0,0,0-.325-.125.472.472,0,0,0-.423.215.851.851,0,0,0-.11.476v1.251h-.692Z" transform="translate(-153.832 -128.771)" fill="#fff"/></g><path d="M33.326,17.4s.026.008.03.015a3.34,3.34,0,0,1-1.466.866,2.985,2.985,0,0,1-1.157.083,3.708,3.708,0,0,1-1.637-.639c-.3-.2-.6-.4-.892-.6a1.459,1.459,0,0,0-1.111-.208c-.215.023-.053.125-.019.144a8.484,8.484,0,0,1,1.5.934c.317.234.884.779.884.779l-.423.363s-.325-.363-.465-.5a7.81,7.81,0,0,0-1.935-1.5.137.137,0,0,0-.189,0,7.918,7.918,0,0,0-1.935,1.5c-.14.14-.465.5-.465.5l-.423-.363s.567-.544.884-.779a9.011,9.011,0,0,1,1.5-.934c.034-.015.2-.121-.019-.144a1.475,1.475,0,0,0-1.111.208c-.295.2-.593.4-.892.6a3.708,3.708,0,0,1-1.637.639,2.914,2.914,0,0,1-1.157-.083,3.385,3.385,0,0,1-1.466-.869.047.047,0,0,1,.03-.015c.034.015.057.026.091.045a2.934,2.934,0,0,0,1.946.227,6.491,6.491,0,0,0,1.312-.454c.306-.132.609-.276.922-.378a4.379,4.379,0,0,1,2.476-.057.161.161,0,0,1,.042.008.075.075,0,0,0,.042-.008,4.314,4.314,0,0,1,2.476.057c.314.106.616.249.922.378a6.491,6.491,0,0,0,1.312.454,2.934,2.934,0,0,0,1.946-.227c.034-.019.057-.03.091-.045Zm1.962-1.78a2.7,2.7,0,0,1-.881.465,5.194,5.194,0,0,1-1.383.208,15.888,15.888,0,0,0-1.8.155h-.011c-.038.008-.057-.011-.042-.023,0,0,.008,0,.008-.008a2.22,2.22,0,0,0,1.179-1.138c.189-.363.5-1.07.59-1.187,0,0,0-.026-.008-.03-.042.015-.631.518-.9.767-.333.31-.646.639-.979.949a3.669,3.669,0,0,1-1.542.786.043.043,0,0,0-.023.011.224.224,0,0,1-.015.023h.011c.212.049.82.181,1.13.265a7.638,7.638,0,0,0,1.459.272,3.5,3.5,0,0,0,3.247-1.516v0a.072.072,0,0,0-.042,0Zm1.833-2.808a4.684,4.684,0,0,1-1.051.915,6.627,6.627,0,0,1-1.077.59,5.766,5.766,0,0,0-1.327.779c-.026.023-.049.038-.076.06s-.03-.008-.011-.026a3.65,3.65,0,0,0,.816-1.977,7.663,7.663,0,0,1,.223-1.41.057.057,0,0,0-.008-.038h0a6.076,6.076,0,0,0-1,1.814c-.125.355-.242.711-.37,1.062a3.4,3.4,0,0,1-.767,1.289l-.034.034a.122.122,0,0,0-.008.023h0c.053-.008.087-.015.121-.023.408-.083.816-.181,1.228-.249a4,4,0,0,0,1.844-.786,4.358,4.358,0,0,0,1.334-1.561,3,3,0,0,0,.2-.51.065.065,0,0,0-.038,0Zm.8-3.156a3.813,3.813,0,0,1-.96,1.508,13.309,13.309,0,0,0-1.391,1.584c-.008.015-.034.008-.023-.019a4.115,4.115,0,0,0,.129-1.78c-.079-.5-.3-1.051-.355-1.667V9.275c0-.008-.015-.026-.026-.026a.292.292,0,0,0-.023.057,5.591,5.591,0,0,0-.261,1.221c-.026.5.068,1.149.026,1.663a4.56,4.56,0,0,1-.363,1.727v.008a.078.078,0,0,0,.011.042h0c.219-.14.847-.51,1.259-.782a4.862,4.862,0,0,0,1.327-1.266,3.8,3.8,0,0,0,.692-2.2.437.437,0,0,0,0-.079.06.06,0,0,0-.03.019ZM36.6,10s-.008.011-.011.011a.021.021,0,0,1-.019-.015,2.851,2.851,0,0,0,.011-.506,3.521,3.521,0,0,0-.711-1.569A7.18,7.18,0,0,1,35.3,6.913s-.026-.019-.03-.015c0,.053.008.227.019.34a11.055,11.055,0,0,0,.635,2.472,3.462,3.462,0,0,1,.223,1.565c-.008.045-.008.053.011.068h0c.189-.276.559-.661.79-.937a3.889,3.889,0,0,0,.881-3.7,1.394,1.394,0,0,0-.1-.246c-.011,0-.026.026-.026.03,0,1.421-.684,2.033-.971,3.009-.053.185-.1.359-.136.5ZM35.522,5.575a4.61,4.61,0,0,1-.76-.843,0,0,0,0,0,0,0l-.008-.008a.062.062,0,0,0-.034-.008H34.7c.011.06.208.688.333.979a5.548,5.548,0,0,0,.752,1.138c.019.026.042.053.06.079a6.252,6.252,0,0,1,.824,1.569c0,.011.026.023.03.019.038-.144.215-.707.348-1.089a11.43,11.43,0,0,0,.31-1.172,4.011,4.011,0,0,0-.722-2.816c-.008,0-.015.026-.015.034a.761.761,0,0,1,.026.087l.034.125a3.88,3.88,0,0,1,.026,1.557,6.522,6.522,0,0,0-.113,1.24c0,.068.045.582.042.6s-.026,0-.03-.008-.068-.189-.132-.348c-.026-.068-.057-.132-.079-.178a2.806,2.806,0,0,0-.866-.956Zm-.6-3.791a1.859,1.859,0,0,1,.408.586,8.87,8.87,0,0,1,.291,1.285c.06.246.094.416.181.7.008.023-.019.034-.03.011,0,0,0-.008-.008-.008a3.8,3.8,0,0,0-1.13-.934,2.615,2.615,0,0,1-.737-.661l-.113-.147s-.026-.011-.034-.008,0,.034.008.06A2.665,2.665,0,0,0,34.4,3.931c.265.253.563.476.847.711a7.208,7.208,0,0,1,.99,1.028l0,.008s.023.015.023.008V5.677h0c-.008-.076-.011-.193-.011-.329,0-.31.015-.722.026-1.005,0-.113.008-.231.008-.344A2.392,2.392,0,0,0,36.1,2.99,2.325,2.325,0,0,0,35,1.784a.648.648,0,0,0-.1-.038.1.1,0,0,0,0,.038v0Zm-2.162-1a4.85,4.85,0,0,1,.771.918,4.5,4.5,0,0,0,.729.9c.2.2.763.639.907.748a.013.013,0,0,0,.008,0h.011V3.349A3.636,3.636,0,0,0,34.15,1.395,3.775,3.775,0,0,0,32.691.688a.1.1,0,0,0,0,.034l.068.06ZM20.989,17.144a7.693,7.693,0,0,0,1.459-.272c.314-.083.918-.215,1.13-.265h.011a.033.033,0,0,0-.015-.023l-.023-.011a3.669,3.669,0,0,1-1.542-.786c-.333-.31-.646-.639-.979-.949-.268-.249-.862-.752-.9-.767a.089.089,0,0,0-.008.03c.087.117.4.824.59,1.187a2.221,2.221,0,0,0,1.179,1.138s.008,0,.008.008,0,.03-.042.023h-.011a15.963,15.963,0,0,0-1.8-.155,5.046,5.046,0,0,1-1.383-.208,2.7,2.7,0,0,1-.881-.465.069.069,0,0,0-.042,0v0a3.5,3.5,0,0,0,3.247,1.516Zm-.469-1.232c.034.008.068.011.121.023v0a.048.048,0,0,0-.008-.023.284.284,0,0,0-.034-.034,3.4,3.4,0,0,1-.767-1.289c-.129-.352-.246-.707-.37-1.062a6.122,6.122,0,0,0-1-1.814h0c0,.008-.015.023-.008.038a7.662,7.662,0,0,1,.223,1.41,3.617,3.617,0,0,0,.816,1.977c.015.019,0,.038-.011.026-.026-.019-.049-.038-.076-.06a5.688,5.688,0,0,0-1.327-.779A6.473,6.473,0,0,1,17,13.731a4.8,4.8,0,0,1-1.051-.915.045.045,0,0,0-.038,0,2.994,2.994,0,0,0,.2.51,4.39,4.39,0,0,0,1.334,1.561,4.04,4.04,0,0,0,1.844.786c.412.068.82.166,1.228.249Zm-3.394-2.725c.412.276,1.039.643,1.259.782h0a.078.078,0,0,0,.011-.042V13.92a4.575,4.575,0,0,1-.363-1.727c-.042-.518.053-1.16.026-1.663A5.543,5.543,0,0,0,17.8,9.309c-.015-.049-.019-.057-.023-.057s-.023.019-.026.026v.008c-.053.616-.276,1.164-.355,1.667a4.115,4.115,0,0,0,.129,1.78c.008.026-.015.03-.023.019a14.021,14.021,0,0,0-1.391-1.584,3.8,3.8,0,0,1-.96-1.508s-.026-.023-.03-.019,0,.053,0,.079a3.8,3.8,0,0,0,.692,2.2,4.863,4.863,0,0,0,1.327,1.266Zm-.215-1.848h0c.019-.015.019-.019.011-.068a3.411,3.411,0,0,1,.223-1.565,11.055,11.055,0,0,0,.635-2.472,3.238,3.238,0,0,0,.019-.34c-.008,0-.03.011-.03.015a7.584,7.584,0,0,1-.563,1.005A3.481,3.481,0,0,0,16.5,9.483a2.534,2.534,0,0,0,.011.506s-.008.019-.019.015a.028.028,0,0,1-.011-.011c-.038-.144-.079-.314-.136-.5-.287-.975-.975-1.584-.971-3.009,0-.008-.019-.03-.026-.03a1.394,1.394,0,0,0-.1.246,3.876,3.876,0,0,0,.881,3.7c.227.28.6.661.79.937Zm-.892-3.931c.132.382.31.941.352,1.089,0,0,.026-.008.03-.019a6.317,6.317,0,0,1,.824-1.569c.019-.026.042-.053.06-.079a5.818,5.818,0,0,0,.752-1.138c.125-.291.321-.918.336-.979h-.015a.077.077,0,0,0-.034.008s-.008,0-.008.008l0,0a4.489,4.489,0,0,1-.76.843,2.806,2.806,0,0,0-.866.956c-.023.045-.053.11-.079.178-.068.155-.132.344-.132.348s-.023.03-.03.008.038-.533.042-.6a6.845,6.845,0,0,0-.113-1.24A3.945,3.945,0,0,1,16.4,3.666l.034-.125a.762.762,0,0,1,.026-.087s-.008-.03-.015-.034a4.011,4.011,0,0,0-.722,2.816,9.738,9.738,0,0,0,.31,1.172Zm.786-2.06a2.578,2.578,0,0,1-.011.329h0v.008c0,.008.023-.008.023-.008l0-.008a7.208,7.208,0,0,1,.99-1.028c.283-.234.582-.457.847-.711A2.665,2.665,0,0,0,19.3,2.665a.213.213,0,0,0,.008-.06.09.09,0,0,0-.034.008l-.113.147a2.621,2.621,0,0,1-.737.661,3.8,3.8,0,0,0-1.13.934s0,.008-.008.008c-.011.023-.038.011-.03-.011.087-.276.121-.45.181-.7a9.273,9.273,0,0,1,.291-1.285,1.744,1.744,0,0,1,.408-.586l0,0a.052.052,0,0,0,0-.038.648.648,0,0,0-.1.038,2.354,2.354,0,0,0-1.1,1.206A2.516,2.516,0,0,0,16.756,4c0,.113,0,.231.008.344.015.283.026.7.026,1.005ZM17.886,3.36H17.9a.012.012,0,0,0,.008,0c.144-.11.711-.552.907-.748a4.526,4.526,0,0,0,.729-.9A4.85,4.85,0,0,1,20.313.79l.068-.06s.008-.026,0-.034a3.748,3.748,0,0,0-1.459.707,3.636,3.636,0,0,0-1.036,1.954v.008ZM26.33,9.884c.06-.087-.087-.144-.125.008S26.273,9.971,26.33,9.884Zm1.6-3.7c-.057-.03-.291.257-.253.3A1.091,1.091,0,0,0,27.928,6.187Zm.049-.049c.034.019.189-.064.163-.087s-.212-.106-.215-.057C27.921,6.078,27.944,6.119,27.978,6.138Zm2.816,2.468c-.072,0-.151.11-.132.11.053,0,.094.042.136.03.079-.019.068-.144,0-.144Zm-1.02-2.657c-.064,0-.079.072-.019.1a.237.237,0,0,0,.155-.023c.042-.026.091-.06.083-.125,0-.038-.094-.147-.049-.193s.1.026.155.008.057-.06.057-.11c0-.072-.026-.166-.11-.166-.06,0-.17.166-.174.178a.189.189,0,0,0,0,.14c.038.087.023.189-.094.189Zm1.383.011c0,.038.11.306.121.378s.034.291.094.268c.038-.015.034-.147.026-.2a2.536,2.536,0,0,0-.11-.454c-.03-.091-.159-.386-.2-.378s.064.215.079.283c.011.045,0,.06-.008.1ZM30.427,2.4c.068.026.068-.1-.049-.2s-.268-.049-.227,0A1.345,1.345,0,0,0,30.427,2.4Zm-3.145-.9c-.136-.087-.023-.212-.132-.291a.347.347,0,0,0-.344.068c-.091.121.121.079.2.113s.268.2.3.163S27.3,1.508,27.282,1.493Zm.832-.42c-.185-.083-.881-.079-.862.1.015.155.4.008.5,0s.522-.019.359-.1ZM26.08,9.162c-.008-.034-.068-.03-.053,0s-.019.064.011.1a.137.137,0,0,0,.174,0,.068.068,0,0,0-.011-.091c-.034-.015-.11.015-.121-.019Zm-.268-1.383c.057,0,.057-.042.087-.042s.008.045.064.045.117-.147-.068-.147c-.151,0-.132.144-.087.147Zm.242.155c-.113-.03-.091.038-.163.045-.117.011-.011-.087-.072-.132-.026-.019-.094.079-.1.144,0,.03,0,.132.045.136a3.871,3.871,0,0,1,.4.053c.1.023,0-.215-.11-.242ZM24.769,9.317c.034,0,.06-.125.038-.189s-.136-.015-.147.015.072.174.106.174Zm-1.682-.011c0-.053,0-.212-.038-.242s-.034.026-.06.023-.019-.076-.045-.076.008.125.038.2S23.079,9.4,23.087,9.305Zm-.042-.386a1.874,1.874,0,0,0,.057-.382c-.008-.1-.064-.2-.076-.189s.008.068.011.166a1.342,1.342,0,0,1-.064.314C22.973,8.875,23.015,8.977,23.045,8.92Zm-4.494-.934a7.986,7.986,0,1,1,7.986,7.986,7.988,7.988,0,0,1-7.986-7.986Zm2.461,5.284.869-.869a6.8,6.8,0,0,1-.48-.567.427.427,0,0,1-.181-.121c-.076-.091-.113-.227-.147-.227s0,.087-.083.1c-.106.015-.261-.253-.317-.348-.068-.113-.185-.117-.242-.223-.015-.03-.057-.125-.091-.068-.06.094-.265-.208-.314-.189s-.008.083-.038.11c-.057.053-.231-.234-.295-.2s-.076.064-.079.14.094.28.06.295a1.343,1.343,0,0,1-.242-.639c.03-.015.026.03.06.008s-.026-.064-.042-.132-.079-.072-.083-.151.106-.053.106-.091a.135.135,0,0,1,.042-.11c.038-.03.125,0,.144-.11.015-.094.064-.008.072.064s.219.1.231.045c.008-.034-.083-.034-.083-.064,0-.06.113,0,.193,0,.034,0,.094-.053.174-.011a.642.642,0,0,0,.193.076,6.328,6.328,0,0,1-.314-1.822H18.9a7.593,7.593,0,0,0,2.117,5.114Zm5.042-7.079a1.649,1.649,0,0,0-.125.17,1.722,1.722,0,0,1,.438-.1V5.034a2.936,2.936,0,0,0-1.8.745l.866.866a1.716,1.716,0,0,1,.325-.212.966.966,0,0,1,.091-.042C25.914,6.289,26.042,6.172,26.054,6.191Zm-3.02,4.57a.233.233,0,0,1-.008.072c.064.079.129.155.2.227l.866-.866a3.3,3.3,0,0,1-.8-1.644.054.054,0,0,1-.064-.023c-.019-.03.008-.06.045-.091-.011-.091-.023-.185-.026-.28h-.578c.008.091.042.223-.019.268s-.121,0-.166,0c-.11.015-.136.147-.106.238a.35.35,0,0,1,.034.174c-.011.06-.045.11.053.163s.234.231.223.265-.106-.038-.11.034c0,.045.132-.011.125.14a.613.613,0,0,0,.045.249.8.8,0,0,1,.11.355.783.783,0,0,0,.026.363c.053.117.147.208.147.344ZM22.312,8.7c-.072-.083.045-.314.064-.359s.125-.11.159-.181h-.514a4.96,4.96,0,0,0,.1.79c.125.045.359-.057.189-.249ZM21.991,12a.019.019,0,0,0-.011,0c.045.053.094.106.144.155l.1-.1c-.091-.057-.178-.094-.227-.064Zm2.1-6.221-.866-.866a4.491,4.491,0,0,0-1.2,2.9h.6a1.063,1.063,0,0,0,.1-.382,1.478,1.478,0,0,1,.136-.253c.045-.072.094-.151.189-.155.2,0,.246-.106.37-.163s.348-.091.321-.155c-.019-.045-.461.129-.472.094-.015-.06.14-.053.208-.113a.229.229,0,0,1,.038-.026,3.346,3.346,0,0,1,.571-.884Zm-.155.809s.023-.011.034-.019a.56.56,0,0,1,.427-.034,1.785,1.785,0,0,1,.306.212c.026.019.042-.019.166-.038.053-.008.064.045.14.057a.613.613,0,0,0,.079,0l-.752-.752a2.94,2.94,0,0,0-.4.567Zm-.847.93a.256.256,0,0,0-.246.113.241.241,0,0,0-.034.181h.438c0-.083.011-.166.023-.246A.466.466,0,0,0,23.091,7.521Zm1.247,2.43.866-.866a1.676,1.676,0,0,1-.185-.276h0a.106.106,0,0,0-.03.045c-.019.038,0,.166-.049.223-.068.072-.253-.159-.314-.178-.079-.026-.117.064-.113.087.011.064,0,.091-.03.1s-.174-.094-.11-.117-.019-.094-.053-.117c-.057-.042-.144,0-.185-.06a.4.4,0,0,0-.151-.113c-.019,0-.1-.042-.159-.011s-.091-.023-.125-.057l-.057-.057a2.917,2.917,0,0,0,.7,1.4Zm.866-1.5V8.372a.048.048,0,0,1,0-.023h0a.067.067,0,0,1,0-.023V8.319a.029.029,0,0,1,0-.015V8.3a.014.014,0,0,1,0-.011v0s.008-.011.008-.015.026-.015.045-.015.068.023.106.026a.094.094,0,0,0,.076-.034.282.282,0,0,0,.026-.045.1.1,0,0,0,.011-.042V8.141c-.008-.011-.023-.019-.06,0a.054.054,0,0,0-.023.008.2.2,0,0,1-.042.008h-.019a.059.059,0,0,1-.049-.03c0-.008-.008-.011-.011-.019a.061.061,0,0,0-.015-.026.316.316,0,0,0-.087-.068.384.384,0,0,1-.049-.034l-.023-.023c-.008-.008-.011-.015-.019-.019l-.008-.008-.011-.011s-.008,0-.008-.008a73.888,73.888,0,0,1-.023-.015s-.008,0-.008-.008-.008,0-.011-.008a.012.012,0,0,1-.008,0s-.008,0-.015-.008H25a.023.023,0,0,1-.015,0h0a.132.132,0,0,0-.125.042h0c-.008.008-.011.015-.019.023h0a.16.16,0,0,0-.019.026h0c-.008.011-.011.023-.019.034a.423.423,0,0,0-.038.083c-.1.261-.215.181-.2.272,0,.011.03.019.072.023h.113a.367.367,0,0,0,.064,0,.083.083,0,0,0,.03,0h.049a.034.034,0,0,0,.019,0h.011a.08.08,0,0,0,.026-.011.184.184,0,0,1,.042-.015h0l.038-.011a.2.2,0,0,1,.068,0,.1.1,0,0,1,.06.045.254.254,0,0,1,.038.1Zm1.168-3.761V3.47a4.5,4.5,0,0,0-2.9,1.2l.866.866a3.3,3.3,0,0,1,2.037-.847Zm0-1.565V1.9a6.064,6.064,0,0,0-4.006,1.663l.866.866a4.834,4.834,0,0,1,3.141-1.3Zm-4.248.68A6.074,6.074,0,0,0,20.46,7.816h1.221a4.834,4.834,0,0,1,1.3-3.141l-.866-.866ZM20.46,8.156a6.118,6.118,0,0,0,.329,1.814h.023a.771.771,0,0,0,.367-.06c.121-.094.008-.423.083-.563.094-.17.325-.578.4-.578s.06.045.091.053a4.782,4.782,0,0,1-.068-.661H20.456Zm5.908,6.251a6.405,6.405,0,0,1-4.248-1.761l-.869.869a7.593,7.593,0,0,0,5.114,2.117V14.412Zm0-1.565a4.826,4.826,0,0,1-2.933-1.115c.019.023.034.045.049.064.057.1.253.295.129.374-.1.064-.276.023-.37.019s-.261.155-.352.174a.454.454,0,0,1-.291-.034.432.432,0,0,1-.1-.06l-.136.136a6.074,6.074,0,0,0,4.006,1.663V12.843Zm0-.431a1.339,1.339,0,0,1-.5-.034c-.129-.091-.28-.178-.3-.246-.03-.121-.2-.215-.2-.329,0-.129.178-.17.129-.3-.038-.1.064-.231.246-.321a3.354,3.354,0,0,1-1.421-.752l-.866.866a4.486,4.486,0,0,0,2.9,1.2v-.087Zm.265-1.633c.129-.023.268-.06.386-.072s0,.17.072.178c.091.008.465.072.491-.011.023-.068.026-.1.106-.117a.875.875,0,0,0,.4-.125c.045-.034.144-.049.17-.1s-.019-.3-.113-.261c-.045.019-.1.083-.2.132s-.147.064-.212-.019.034-.136.079-.185c.072-.079.136-.159.215-.159.03,0,.2-.083.181-.155-.019-.1-.208.008-.253-.03-.03-.026,0-.1-.023-.11s-.094.087-.038.14c.026.026-.045.1-.129.049-.064-.042-.079.193-.076.234s.094.03.034.11-.079.019-.125.057-.064.064,0,.129-.03.155-.049.06c-.011-.064-.144-.045-.17-.113s-.132-.064-.261-.132c-.1-.049-.087.1.079.136.14.034.132.049.094.136-.034.072-.026-.057-.2-.1-.11-.03-.113-.087-.2-.087s-.057.083-.147.06c-.068-.015-.079.076-.144.1s-.072.174-.151.212c-.117.057-.355.015-.348-.1s.015-.2.083-.242.155.068.238.03.064-.129.011-.189c-.015-.019-.079-.053-.076-.072s.125-.034.185-.076a1.5,1.5,0,0,0,.159-.178c.034-.026.1-.034.106-.057s-.045-.087-.042-.125.019-.068.049-.064.064.087.045.11.015.064.057.045.185-.072.227-.083c.057-.015-.015-.144,0-.166s.034.008.057-.015-.045-.045-.034-.091.159-.076.117-.1-.1.049-.129.064c-.076.034-.11-.049-.11-.11,0-.03.042-.136.008-.159-.049-.03-.057.1-.064.125a.187.187,0,0,0,.011.189c.03.057.015.242-.042.265s-.087-.094-.117-.144a.082.082,0,0,0-.015-.019h-.008a.012.012,0,0,0-.008,0h0a.054.054,0,0,1-.008.011.348.348,0,0,1-.019.03.357.357,0,0,0-.026.06.049.049,0,0,1-.045.038,1.585,1.585,0,0,1-.189.011h-.076c.011.038.023.079.034.106.034.064.1.117.087.163s-.208.091-.227.057.049-.129.045-.17c-.011-.072-.045-.113-.042-.163a1.724,1.724,0,0,1-.926-.386l-.866.866a2.945,2.945,0,0,0,1.557.722c.083-.053.117-.144.185-.094.106.079.231-.026.317-.042Zm.076,2.064v1.225a6.216,6.216,0,0,0,1.436-.212c-.094-.079-.14-.212-.257-.253-.2-.068-.257-.2-.147-.378.06-.1.038-.136-.034-.242a.575.575,0,0,0-.272-.219,4.537,4.537,0,0,1-.722.079Zm.586-.4a.2.2,0,0,0-.178-.03c-.2.053-.132-.106-.408-.064V12.5a4.878,4.878,0,0,0,.586-.06Zm4.528,1.073-.869-.869a6.475,6.475,0,0,1-1.512,1.07,3,3,0,0,1-.575.314.619.619,0,0,1-.227.076.124.124,0,0,1-.072-.023,6.469,6.469,0,0,1-1.863.329v1.221a7.593,7.593,0,0,0,5.114-2.117Zm-1.712-8.84a.029.029,0,0,1-.011.015,5.11,5.11,0,0,1,.54.7c.019-.023.034-.045.06-.015.042.049-.045.14.083.117.076-.015.06.083,0,.136.038.072.079.144.113.215a.137.137,0,0,1,.087.076,2.1,2.1,0,0,1,.068.276,4.949,4.949,0,0,1,.159.472c.064-.053.132-.023.14.064a.558.558,0,0,1-.06.268,4.822,4.822,0,0,1,.1.813h1.221a6.134,6.134,0,0,0-.518-2.294.36.36,0,0,0-.1.072c-.06.079-.163-.019-.215-.087-.1-.125-.344-.484-.454-.5-.091-.015-.159-.132-.253-.151s-.215-.072-.231-.174a.16.16,0,0,0-.159-.163.453.453,0,0,1-.287-.155l-.291.291v.015Zm.775,7.423.068.068A6.074,6.074,0,0,0,32.615,8.16H31.394a4.826,4.826,0,0,1-1.3,3.141l.442.442a.047.047,0,0,0,.008-.019.633.633,0,0,0,.026-.249c0-.045.174-.034.185.042a2.813,2.813,0,0,0,.1.272.512.512,0,0,1,.034.31Zm-.93.763c-.034.079-.2.219-.166.265a6.287,6.287,0,0,0,.922-.718l-.866-.866c-.06.057-.121.11-.185.163-.015.1,0,.178.121.215s.352.174.3.3-.181.291-.242.4c-.053.1.151.14.113.234Zm.2-5.057a.054.054,0,0,1-.008.015h.9c0-.129-.015-.257-.03-.386-.008.015-.015.026-.023.042-.068.14-.076.057-.072,0a1.052,1.052,0,0,1,.064-.231l-.023-.125a.3.3,0,0,1-.129.094c-.042.019-.076.113-.091.151s-.117-.011-.2.03c-.144.068-.287.079-.185.227.068.094-.159.068-.208.189Zm-.314-2.884-.866.866a3.433,3.433,0,0,1,.393.537.5.5,0,0,1,.329.17c.064.083.246.246.219.317-.019.045.023.1.064.129.064.045.11.045.144,0,.064-.083.072-.193.159-.261.1-.087.314.163.314.208s-.057.057-.072.136c-.023.11-.113.238-.008.276.155.053.174-.008.249-.117.034-.049.026-.132.064-.181a.264.264,0,0,1,.091-.064,4.5,4.5,0,0,0-.231-.7.21.21,0,0,0-.083-.053c-.057-.019-.023-.068-.1-.091s-.117-.049-.125-.2c-.008-.117.1.038.125.019a.082.082,0,0,0,.015-.019,4.589,4.589,0,0,0-.688-.968ZM28.794,6.093a.294.294,0,0,1-.106-.019l-.287.287a.945.945,0,0,1,.185.026c.076.034.038-.212.155-.189s.147.1.049.136c-.079.026.019.091-.076.125s.072.106.068.14-.117.064.057.117,0-.147.026-.178.125.053.151.015c.011-.015.026-.038.049-.068A3.146,3.146,0,0,0,28.79,6.1Zm-.446,4.539c0,.06-.057.011-.076.034a2.772,2.772,0,0,0,.559.268.767.767,0,0,0,.336.011c.121-.023.155.03.212.03.079,0,.132-.113.178-.178.125-.178.1-.2.132-.227s.163.234.147.4a.454.454,0,0,1-.011.076l.011.011a4.491,4.491,0,0,0,1.2-2.9h-.93a2.687,2.687,0,0,1,.147.242c.045.1.076.249.155.257.129.011.257.117.261.2.008.185-.567.231-.643.208s-.106-.023-.11.076c0,.113-.208.113-.287.181s-.1.215-.159.31a2.543,2.543,0,0,1-.306.3c-.14.1-.4.1-.28.166.083.045.276.06.253.015s.015-.057.045-.015.117-.03.113-.091-.015-.144.038-.147c.083,0,.17-.1.212-.087s.11.113.064.431a1.569,1.569,0,0,1-.257.635c-.064.106-.129.026-.219-.019a3.373,3.373,0,0,0-.4-.094c-.06-.019-.4-.147-.4-.1ZM34.172,8.16H32.952a6.405,6.405,0,0,1-1.761,4.248l.869.869a7.593,7.593,0,0,0,2.117-5.114ZM32.056,2.706l-.907.907a3.239,3.239,0,0,0,.457.552c.091.091.185.181.265.265s.571.692.476.782c-.008.008-.015.011-.023.019a6.407,6.407,0,0,1,.62,2.6h1.221a7.593,7.593,0,0,0-2.117-5.114ZM26.7,1.569a6.412,6.412,0,0,1,2.88.763.756.756,0,0,0,.215-.049c.11-.049.321.064.427.125s.166.136.272.193a.732.732,0,0,1,.314.4c.038.174.147.159.091.231-.026.034.015.049.068.079l.85-.85A7.593,7.593,0,0,0,26.7.344V1.565Zm0,1.565a4.851,4.851,0,0,1,2.767.99c-.087-.117-.178-.234-.215-.28-.076-.079-.355-.178-.329-.223s.276.155.321.117-.125-.272-.113-.28a1.169,1.169,0,0,1,.333.374c.042.064.159.03.246.094s.083.144.151.2c.011.008.151.091.068.079-.023,0-.06-.053-.087-.026s.011.1.057.2l.4-.4c-.06-.121-.174-.276-.257-.3s-.136.049-.193.1-.129.064-.14.03a1.171,1.171,0,0,1,.008-.163c-.008-.045-.042-.083-.053-.129-.03-.106.015-.223-.049-.295a1.777,1.777,0,0,1-.174-.283.952.952,0,0,1-.178-.374,6.015,6.015,0,0,0-2.574-.646V3.137Zm0,1.565a3.293,3.293,0,0,1,2.037.847l.866-.866a4.491,4.491,0,0,0-2.9-1.2V4.7Zm0,1.569a1.787,1.787,0,0,1,.344.068c.03-.072.1-.106.163-.147s.121-.1.113.026a.258.258,0,0,1-.094.185,1.694,1.694,0,0,1,.34.2c.023.019.045.034.068.053l.117-.117V6.52c0-.068.1-.147.212-.2l.382-.382a.122.122,0,0,1-.03,0c-.053-.008-.125.1-.174.072s.17-.231.268-.193a.231.231,0,0,1,.045.019l.049-.049a2.936,2.936,0,0,0-1.8-.745V6.267Zm-.17.333a1.386,1.386,0,0,0-.416.064c-.019.019-.03.034-.023.049.034.049.136-.053.151.042.011.068-.113.019-.1.068s.094.023.1.079a.284.284,0,0,1-.094.178c-.057.034-.348.076-.374.144a.47.47,0,0,1-.094.163c-.049.053-.283.193-.287.227,0,.087.113-.023.144-.057.049-.053.121-.053.2-.094.106-.06.144.147.034.155-.068,0-.129.2-.238.163-.026-.011-.106-.057-.121-.008s.163.06.219.1c.144.094-.11.087-.151.113s-.019.079.034.057.125-.076.159.011c.045.121-.2.563-.272.518-.038-.026-.079.011-.113.026a1.364,1.364,0,0,0,.181.28c.049-.079.125-.193.155-.193.045,0,.03-.038.045-.068s.076,0,.079-.049.14-.129.155-.2c.008-.042-.042-.083-.023-.117a.1.1,0,0,1,.072-.057c.026-.008.091.053.11.026s.113-.008.185.038c.034.023.1,0,.136.053.053.076,0,.083.008.1s.034-.011.049,0c.03.03-.144.132-.121.185s-.147.329-.193.37c-.064.057-.166-.008-.208,0s-.053.049-.121.034a.277.277,0,0,0-.174.038,1.387,1.387,0,0,0,.915.348,1.439,1.439,0,0,0,.223-.019.379.379,0,0,0,.072-.2.345.345,0,0,1,.019-.125c.019-.03.132-.17.178-.166s.068.038.125.019c.11-.034.181,0,.181.042,0,.068-.14.049-.132.087s.106.068.14.026a.178.178,0,0,0,.038-.185c-.045-.057-.042-.079.023-.057.038.015.038-.144.076-.2.053-.079-.094-.023-.155-.015s-.106-.113-.106-.159c0-.03.11.11.163.113a.149.149,0,0,0,.136-.125c0-.053-.121-.06-.136-.125-.011-.034.1,0,.091-.034s.011-.106-.057-.132-.132-.246-.185-.261-.087.053-.117.076-.076-.019-.053-.042.117-.1.132-.159c.026-.091.147,0,.125-.125s-.14-.113-.087-.181a.1.1,0,0,0-.1-.159c-.053.011-.11-.076-.113-.151,0-.042-.121-.034-.117-.079.008-.091-.125-.1-.2-.091s-.238-.121-.257-.151-.132.026-.094-.091.147.023.2-.011a.079.079,0,0,0,.026-.1H26.53ZM21.246,2.464l.869.869a6.387,6.387,0,0,1,4.248-1.761V.344A7.593,7.593,0,0,0,21.25,2.461ZM18.888,7.82h1.221A6.405,6.405,0,0,1,21.87,3.572L21,2.7a7.593,7.593,0,0,0-2.117,5.114Z" transform="translate(-9.378)" fill="#fff"/><g transform="translate(5.998 18.097)"><path d="M132.734,53.644a1.273,1.273,0,0,1,1.277-1.278h1.829V49.26a1.38,1.38,0,0,1,2.759,0v3.107h4.554a1.278,1.278,0,1,1,0,2.555H138.6v7.8c0,3.209,1.829,4.936,4.554,4.936a1.295,1.295,0,0,1,0,2.589c-4.279,0-7.317-2.9-7.317-7.525v-7.8h-1.829a1.3,1.3,0,0,1-1.278-1.278Z" transform="translate(-88.562 -47.88)" fill="#fff"/><path d="M179.944,74.37a8.714,8.714,0,0,1-6.456,2.763A9.147,9.147,0,1,1,179.944,61.6V60.288a1.38,1.38,0,1,1,2.759,0v15.36a1.38,1.38,0,1,1-2.759,0Zm0-6.108v-.552a6.356,6.356,0,0,0-6.282-6.316,6.449,6.449,0,0,0-6.316,6.592,6.385,6.385,0,0,0,6.316,6.592,6.291,6.291,0,0,0,6.282-6.316Z" transform="translate(-108.355 -54.698)" fill="#fff"/><path d="M221.61,66.293c0-4.452,2.831-7.453,7.109-7.453a1.278,1.278,0,0,1,0,2.555c-2.555,0-4.35,1.689-4.35,4.9v9.354a1.38,1.38,0,1,1-2.759,0V66.3Z" transform="translate(-143.848 -54.698)" fill="#fff"/><path d="M15.878,61.049a2.415,2.415,0,1,1,4.83,0V68.99c0,2.245,1.38,3.455,3.107,3.455s3.107-1.209,3.107-3.455V61.049a2.415,2.415,0,1,1,4.83,0v7.767a7.756,7.756,0,0,1-7.941,8.115,7.756,7.756,0,0,1-7.941-8.115V61.049Z" transform="translate(-15.87 -54.567)" fill="#fff"/><path d="M65.28,66.745a7.943,7.943,0,1,1,15.882,0v7.767a2.415,2.415,0,1,1-4.83,0V66.571c0-2.245-1.38-3.455-3.107-3.455s-3.107,1.209-3.107,3.455v7.941a2.415,2.415,0,1,1-4.83,0V66.745Z" transform="translate(-46.605 -54.567)" fill="#fff"/></g><rect width="0.378" height="54.483" transform="translate(0 0.695)" fill="#fff"/></svg>